<?xml version="1.0" encoding="UTF-8" standalone="no"?>
<!-- Created with Inkscape (http://www.inkscape.org/) -->

<svg
   xmlns:dc="http://purl.org/dc/elements/1.1/"
   xmlns:cc="http://creativecommons.org/ns#"
   xmlns:rdf="http://www.w3.org/1999/02/22-rdf-syntax-ns#"
   xmlns:svg="http://www.w3.org/2000/svg"
   xmlns="http://www.w3.org/2000/svg"
   version="1.1"
   width="656.25"
   height="378.75"
   id="svg3004"
   xml:space="preserve"><metadata
     id="metadata3010"><rdf:RDF><cc:Work
         rdf:about=""><dc:format>image/svg+xml</dc:format><dc:type
           rdf:resource="http://purl.org/dc/dcmitype/StillImage" /><dc:title></dc:title></cc:Work></rdf:RDF></metadata><defs
     id="defs3008"><clipPath
       id="clipPath3020"><path
         d="M 0,0 525,0 525,303 0,303 0,0 z"
         id="path3022" /></clipPath><clipPath
       id="clipPath3062"><path
         d="m 0.06,302.01 524.188,0 0,-302.01 -524.188,0 0,302.01 z"
         id="path3064" /></clipPath><clipPath
       id="clipPath3068"><path
         d="M 0,0 525,0 525,303 0,303 0,0 z"
         id="path3070" /></clipPath><clipPath
       id="clipPath3080"><path
         d="M 0,0 525,0 525,303 0,303 0,0 z"
         id="path3082" /></clipPath></defs><g
     transform="matrix(1.25,0,0,-1.25,0,378.75)"
     id="g3012"><g
       id="g3014" /><g
       id="g3016"><g
         clip-path="url(#clipPath3020)"
         id="g3018"><path
           d="m 207.4,86.496 -157.681,0 c 1.877,1.104 45.09,26.205 87.282,33.593 8.001,-7.448 16.547,-14.19 25.447,-19.214 16.93,-9.554 32.175,-13.258 44.966,-14.113 0,-0.093 -0.014,-0.181 -0.014,-0.266"
           id="path3024"
           style="fill:#fcda4d;fill-opacity:1;fill-rule:nonzero;stroke:none" /><path
           d="m 231.268,133.002 c -7.381,10.371 -18.109,21.152 -33.954,30.095 -9.9,5.594 -20.624,9.792 -31.384,13.038 -15.895,41.497 -15.326,94.991 -15.326,94.991 0,0 46.47,-24.138 75.652,-62.528 -0.604,-5.127 -1.03,-10.28 -1.056,-15.432 -10e-4,-0.213 -10e-4,-0.426 -10e-4,-0.638 0.006,-23.926 7.121,-41.786 14.963,-54.269 -3.134,-1.493 -6.107,-3.245 -8.894,-5.257"
           id="path3026"
           style="fill:#fcda4d;fill-opacity:1;fill-rule:nonzero;stroke:none" /><path
           d="m 211.777,108.463 c -12.14,7.285 -29.33,13.577 -52.852,13.698 -0.145,0.001 -0.289,0.001 -0.434,0.001 -0.004,0 -0.007,0 -0.01,0 -6.817,0 -13.878,-0.767 -20.97,-1.985 -0.052,-0.009 -0.104,-0.018 -0.155,-0.026 -0.01,-0.002 -0.02,-0.004 -0.029,-0.005 -0.109,-0.019 -0.217,-0.038 -0.326,-0.057 -29.96,27.859 -51.825,66.118 -51.825,66.118 0,0 2.554,0.128 7.017,0.128 13.329,0 43.669,-1.137 73.737,-10.2 2.388,-6.232 5.129,-12.205 8.313,-17.673 13.149,-22.542 28.994,-34.557 42.261,-41.031 -1.822,-2.832 -3.423,-5.817 -4.727,-8.968"
           id="path3028"
           style="fill:#fcda4d;fill-opacity:1;fill-rule:nonzero;stroke:none" /><path
           d="m 207.414,86.762 0,0 c -12.791,0.855 -28.036,4.559 -44.966,14.113 -8.9,5.024 -17.446,11.766 -25.447,19.214 0.109,0.019 0.217,0.038 0.326,0.057 0.009,0.001 0.019,0.003 0.029,0.005 0.051,0.008 0.103,0.017 0.155,0.026 7.092,1.218 14.153,1.985 20.97,1.985 0.003,0 0.006,0 0.01,0 0.145,0 0.29,0 0.434,-0.001 23.522,-0.121 40.712,-6.413 52.852,-13.698 -2.779,-6.69 -4.329,-14.009 -4.363,-21.701"
           id="path3030"
           style="fill:#fad11d;fill-opacity:1;fill-rule:nonzero;stroke:none" /><path
           d="m 137.327,120.146 c 0.009,0.001 0.019,0.003 0.029,0.005 -0.01,-0.002 -0.02,-0.004 -0.029,-0.005 m 0.184,0.031 c 7.092,1.218 14.153,1.985 20.97,1.985 -6.817,0 -13.878,-0.767 -20.97,-1.985 m 20.98,1.985 0,0"
           id="path3032"
           style="fill:#face0f;fill-opacity:1;fill-rule:nonzero;stroke:none" /><path
           d="m 216.504,117.431 0,0 c -13.267,6.474 -29.112,18.489 -42.261,41.031 -3.184,5.468 -5.925,11.441 -8.313,17.673 10.76,-3.246 21.484,-7.444 31.384,-13.038 15.845,-8.943 26.573,-19.724 33.954,-30.095 -5.849,-4.22 -10.859,-9.494 -14.764,-15.571"
           id="path3034"
           style="fill:#fad11d;fill-opacity:1;fill-rule:nonzero;stroke:none" /><path
           d="m 250.274,141.949 c 0.004,0.368 0.007,0.739 0.007,1.112 0.002,14.319 -3.256,32.192 -14.525,51.516 -2.84,4.876 -6.077,9.524 -9.5,14.021 5.716,48.389 34.489,93.412 34.489,93.412 0,0 29.463,-49.968 34.858,-95.41 -2.848,-3.889 -5.592,-7.863 -8.01,-12.023 -11.238,-19.271 -14.484,-37.073 -14.51,-51.376 -2.718,0.397 -5.477,0.668 -8.307,0.668 -5.02,0 -9.862,-0.711 -14.502,-1.92"
           id="path3036"
           style="fill:#fcda4d;fill-opacity:1;fill-rule:nonzero;stroke:none" /><path
           d="m 240.162,138.259 0,0 c -7.842,12.483 -14.957,30.343 -14.963,54.269 0,0.212 0,0.425 10e-4,0.638 0.026,5.152 0.452,10.305 1.056,15.432 3.423,-4.497 6.66,-9.145 9.5,-14.021 11.269,-19.324 14.527,-37.197 14.525,-51.516 0,-0.373 -0.003,-0.744 -0.007,-1.112 -3.517,-0.919 -6.893,-2.153 -10.112,-3.69"
           id="path3038"
           style="fill:#fad11d;fill-opacity:1;fill-rule:nonzero;stroke:none" /><path
           d="m 473.63,86.496 -151.476,0 c 0,0.302 -0.043,0.595 -0.051,0.896 11.445,1.546 24.514,5.422 38.797,13.483 8.9,5.024 17.447,11.766 25.439,19.214 42.192,-7.388 85.418,-32.489 87.291,-33.593"
           id="path3040"
           style="fill:#fcda4d;fill-opacity:1;fill-rule:nonzero;stroke:none" /><path
           d="m 294.068,135.765 c -3.35,2.002 -6.924,3.66 -10.67,4.954 7.043,12.084 13.016,28.968 13.139,51.876 0,0.108 0,0.215 0,0.322 -10e-4,4.469 -0.377,9.06 -0.934,13.683 29.053,39.546 77.133,64.526 77.133,64.526 0,0 0.57,-53.494 -15.322,-94.991 -10.764,-3.246 -21.483,-7.444 -31.393,-13.038 -14.432,-8.144 -24.668,-17.829 -31.953,-27.332"
           id="path3042"
           style="fill:#fcda4d;fill-opacity:1;fill-rule:nonzero;stroke:none" /><path
           d="m 283.398,140.719 c -3.314,1.139 -6.758,1.964 -10.315,2.482 0.026,14.303 3.272,32.105 14.51,51.376 2.418,4.16 5.162,8.134 8.01,12.023 0.557,-4.623 0.933,-9.214 0.934,-13.683 0,-0.107 0,-0.214 0,-0.322 -0.123,-22.908 -6.096,-39.792 -13.139,-51.876"
           id="path3044"
           style="fill:#fad11d;fill-opacity:1;fill-rule:nonzero;stroke:none" /><path
           d="m 316.492,111.216 c -1.452,3.03 -3.143,5.921 -5.092,8.632 12.24,6.922 26.033,18.601 37.703,38.614 3.193,5.468 5.92,11.441 8.311,17.673 30.078,9.063 60.411,10.2 73.735,10.2 4.46,0 7.015,-0.128 7.015,-0.128 0,0 -21.864,-38.259 -51.825,-66.118 -0.111,0.019 -0.222,0.039 -0.333,0.058 -0.004,10e-4 -0.008,10e-4 -0.013,0.002 -0.062,0.011 -0.124,0.022 -0.186,0.032 -7.082,1.216 -14.126,1.981 -20.94,1.981 -0.003,0 -0.006,0 -0.009,0 -0.145,0 -0.29,0 -0.435,-0.001 -20.5,-0.103 -36.191,-4.903 -47.931,-10.945"
           id="path3046"
           style="fill:#fcda4d;fill-opacity:1;fill-rule:nonzero;stroke:none" /><path
           d="m 322.103,87.392 c -0.131,8.529 -2.143,16.583 -5.611,23.824 11.74,6.042 27.431,10.842 47.931,10.945 0.145,0.001 0.29,0.001 0.435,0.001 0.003,0 0.006,0 0.009,0 6.813,0 13.859,-0.766 20.94,-1.981 0.062,-0.01 0.124,-0.021 0.186,-0.032 0.005,-0.001 0.009,-0.001 0.013,-0.002 0.111,-0.019 0.222,-0.039 0.333,-0.058 C 378.347,112.641 369.8,105.899 360.9,100.875 346.617,92.814 333.548,88.938 322.103,87.392"
           id="path3048"
           style="fill:#fad11d;fill-opacity:1;fill-rule:nonzero;stroke:none" /><path
           d="m 386.339,120.089 c -0.111,0.019 -0.222,0.039 -0.333,0.058 0.111,-0.019 0.222,-0.039 0.333,-0.058 m -0.346,0.06 c -0.062,0.011 -0.124,0.022 -0.186,0.032 0.062,-0.01 0.124,-0.021 0.186,-0.032 m -21.57,2.012 c 0.145,0.001 0.29,0.001 0.435,0.001 -0.145,0 -0.29,0 -0.435,-0.001 m 0.444,0.001 c -0.003,0 -0.006,0 -0.009,0 0.003,0 0.006,0 0.009,0"
           id="path3050"
           style="fill:#face0f;fill-opacity:1;fill-rule:nonzero;stroke:none" /><path
           d="m 311.4,119.848 c -4.61,6.431 -10.514,11.851 -17.332,15.917 7.285,9.503 17.521,19.188 31.953,27.332 9.91,5.594 20.629,9.792 31.393,13.038 -2.391,-6.232 -5.118,-12.205 -8.311,-17.673 C 337.433,138.449 323.64,126.77 311.4,119.848"
           id="path3052"
           style="fill:#fad11d;fill-opacity:1;fill-rule:nonzero;stroke:none" /><path
           d="m 316.492,111.216 c -1.451,3.03 -3.143,5.921 -5.092,8.632 -4.609,6.431 -10.514,11.851 -17.332,15.917 -3.35,2.002 -6.924,3.66 -10.67,4.954 -3.315,1.139 -6.758,1.964 -10.315,2.482 -2.718,0.397 -5.477,0.668 -8.307,0.668 -5.02,0 -9.862,-0.711 -14.502,-1.92 -3.517,-0.918 -6.893,-2.153 -10.112,-3.689 -3.134,-1.494 -6.107,-3.246 -8.894,-5.258 -5.849,-4.22 -10.859,-9.494 -14.764,-15.571 -1.822,-2.832 -3.423,-5.817 -4.727,-8.968 -2.779,-6.69 -4.329,-14.009 -4.363,-21.701 0,-0.093 -0.014,-0.181 -0.014,-0.266 l 114.754,0 c 0,0.302 -0.043,0.595 -0.051,0.896 -0.131,8.529 -2.143,16.583 -5.611,23.824"
           id="path3054"
           style="fill:#dab02e;fill-opacity:1;fill-rule:nonzero;stroke:none" /><path
           d="m 428.324,59.574 95.924,0 -25.319,-28.719 25.319,-28.717 -95.924,0 0,57.436"
           id="path3056"
           style="fill:#68c98e;fill-opacity:1;fill-rule:nonzero;stroke:none" /></g></g><g
       id="g3058"><g
         clip-path="url(#clipPath3062)"
         id="g3060"><g
           clip-path="url(#clipPath3068)"
           id="g3066"><path
             d="m 428.324,2.138 45.041,17.677 0,61.346 -45.041,0 0,-79.023"
             id="path3072"
             style="fill:#2a8d5e;fill-opacity:1;fill-rule:nonzero;stroke:none" /><path
             d="M 96.076,59.574 0,59.574 25.476,30.855 0,2.138 l 96.076,0 0,57.436"
             id="path3074"
             style="fill:#68c98e;fill-opacity:1;fill-rule:nonzero;stroke:none" /></g></g></g><g
       id="g3076"><g
         clip-path="url(#clipPath3080)"
         id="g3078"><path
           d="m 96.076,2.138 -45.019,17.677 0,61.346 45.019,0 0,-79.023"
           id="path3084"
           style="fill:#2a8d5e;fill-opacity:1;fill-rule:nonzero;stroke:none" /><path
           d="m 49.688,81.161 423.677,0 0,-61.346 -423.677,0 0,61.346 z"
           id="path3086"
           style="fill:#68c98e;fill-opacity:1;fill-rule:nonzero;stroke:none" /><path
           d="m 95.602,26.975 -15.039,0 0,47.359 6.332,0 0,-41.62 8.707,0 0,-5.739"
           id="path3088"
           style="fill:#ffffff;fill-opacity:1;fill-rule:nonzero;stroke:none" /><path
           d="m 112.487,50.061 0,15.764 c 0,1.847 -0.924,2.77 -2.771,2.77 l -1.715,0 c -1.846,0 -2.77,-0.923 -2.77,-2.77 l 0,-15.764 7.256,0 z m -7.256,-23.086 -6.332,0 0,39.246 c 0,5.409 2.528,8.113 7.585,8.113 l 4.749,0 c 5.057,0 7.586,-2.704 7.586,-8.113 l 0,-39.246 -6.332,0 0,17.347 -7.256,0 0,-17.347"
           id="path3090"
           style="fill:#ffffff;fill-opacity:1;fill-rule:nonzero;stroke:none" /><path
           d="m 137.551,51.446 0,22.888 6.332,0 0,-47.359 -6.332,0 0,9.432 -6.794,21.569 0,-31.001 -6.332,0 0,47.359 6.332,0 6.794,-22.888"
           id="path3092"
           style="fill:#ffffff;fill-opacity:1;fill-rule:nonzero;stroke:none" /><path
           d="m 159.581,44.322 0,5.739 9.63,0 0,-23.086 -12.4,0 c -4.881,0 -7.322,2.66 -7.322,7.981 l 0,31.265 c 0,5.409 2.441,8.113 7.322,8.113 l 4.353,0 c 5.364,0 8.047,-2.748 8.047,-8.245 l 0,-5.145 -6.332,0 0,4.222 c 0,2.286 -0.902,3.429 -2.705,3.429 l -1.583,0 c -1.846,0 -2.77,-1.143 -2.77,-3.429 l 0,-29.023 c 0,-2.287 0.924,-3.429 2.77,-3.429 l 4.288,0 0,11.608 -3.298,0"
           id="path3094"
           style="fill:#ffffff;fill-opacity:1;fill-rule:nonzero;stroke:none" /><path
           d="m 172.178,50.787 14.511,0 0,-5.277 -14.511,0 0,5.277 z"
           id="path3096"
           style="fill:#ffffff;fill-opacity:1;fill-rule:nonzero;stroke:none" /><path
           d="m 209.378,38.056 0,-3.034 c 0,-5.365 -2.528,-8.047 -7.585,-8.047 l -4.089,0 c -5.058,0 -7.586,2.682 -7.586,8.047 l 0,31.265 c 0,5.364 2.528,8.047 7.586,8.047 l 4.089,0 c 5.057,0 7.585,-2.683 7.585,-8.047 l 0,-5.343 -6.332,0 0,4.881 c 0,1.847 -0.946,2.77 -2.836,2.77 l -1.253,0 c -1.672,0 -2.506,-0.923 -2.506,-2.77 l 0,-30.341 c 0,-1.847 0.834,-2.77 2.506,-2.77 l 1.583,0 c 1.67,0 2.506,0.923 2.506,2.77 l 0,2.572 6.332,0"
           id="path3098"
           style="fill:#ffffff;fill-opacity:1;fill-rule:nonzero;stroke:none" /><path
           d="m 227.583,50.061 0,15.764 c 0,1.847 -0.923,2.77 -2.77,2.77 l -1.715,0 c -1.847,0 -2.77,-0.923 -2.77,-2.77 l 0,-15.764 7.255,0 z m -7.255,-23.086 -6.332,0 0,39.246 c 0,5.409 2.528,8.113 7.585,8.113 l 4.749,0 c 5.056,0 7.586,-2.704 7.586,-8.113 l 0,-39.246 -6.333,0 0,17.347 -7.255,0 0,-17.347"
           id="path3100"
           style="fill:#ffffff;fill-opacity:1;fill-rule:nonzero;stroke:none" /><path
           d="m 245.854,51.512 4.155,0 c 1.89,0 2.836,1.143 2.836,3.43 l 0,10.224 c 0,2.286 -0.946,3.429 -2.836,3.429 l -4.155,0 0,-17.083 z m -6.333,22.822 12.401,0 c 4.836,0 7.255,-2.704 7.255,-8.113 l 0,-11.674 c 0,-4.135 -1.253,-6.751 -3.76,-7.85 l 4.42,-19.722 -6.003,0 -4.155,19.128 -3.825,0 0,-19.128 -6.333,0 0,47.359"
           id="path3102"
           style="fill:#ffffff;fill-opacity:1;fill-rule:nonzero;stroke:none" /><path
           d="m 276.59,61.604 0,4.156 c 0,1.889 -0.923,2.835 -2.77,2.835 l -0.989,0 c -1.804,0 -2.706,-0.946 -2.706,-2.835 l 0,-7.85 c 0,-0.88 0.176,-1.474 0.529,-1.78 0.351,-0.309 0.923,-0.704 1.716,-1.188 l 6.002,-3.232 c 1.319,-0.748 2.253,-1.33 2.802,-1.748 0.55,-0.418 0.979,-0.923 1.287,-1.517 0.307,-0.594 0.461,-1.727 0.461,-3.397 l 0,-10.092 c 0,-5.321 -2.55,-7.981 -7.651,-7.981 l -3.893,0 c -5.056,0 -7.584,2.903 -7.584,8.706 l 0,2.375 6.331,0 0,-2.572 c 0,-1.847 0.946,-2.77 2.837,-2.77 l 1.122,0 c 1.67,0 2.506,0.923 2.506,2.77 l 0,8.047 c 0,0.879 -0.175,1.473 -0.527,1.781 -0.353,0.307 -0.924,0.702 -1.715,1.187 l -6.003,3.364 c -1.319,0.703 -2.276,1.297 -2.869,1.781 -0.594,0.484 -1.022,1.11 -1.287,1.88 -0.263,0.769 -0.395,1.77 -0.395,3.001 l 0,9.696 c 0,5.409 2.528,8.113 7.584,8.113 l 3.959,0 c 5.056,0 7.585,-2.704 7.585,-8.113 l 0,-4.617 -6.332,0"
           id="path3104"
           style="fill:#ffffff;fill-opacity:1;fill-rule:nonzero;stroke:none" /><path
           d="m 297.037,32.714 3.232,0 c 1.67,0 2.506,0.923 2.506,2.77 l 0,30.341 c 0,1.847 -0.946,2.77 -2.836,2.77 l -2.968,0 c -1.847,0 -2.77,-0.923 -2.77,-2.77 l 0,-30.341 c 0,-1.847 0.945,-2.77 2.836,-2.77 z m -1.517,-5.739 c -5.102,0 -7.651,2.682 -7.651,8.047 l 0,31.199 c 0,5.409 2.527,8.113 7.585,8.113 l 6.068,0 c 5.057,0 7.585,-2.704 7.585,-8.113 l 0,-31.199 c 0,-5.365 -2.551,-8.047 -7.651,-8.047 l -5.936,0"
           id="path3106"
           style="fill:#ffffff;fill-opacity:1;fill-rule:nonzero;stroke:none" /><path
           d="m 327.839,51.446 0,22.888 6.332,0 0,-47.359 -6.332,0 0,9.432 -6.794,21.569 0,-31.001 -6.332,0 0,47.359 6.332,0 6.794,-22.888"
           id="path3108"
           style="fill:#ffffff;fill-opacity:1;fill-rule:nonzero;stroke:none" /><path
           d="m 356.992,49.863 4.024,0 c 1.67,0 2.506,0.924 2.506,2.771 l 0,13.191 c 0,1.847 -0.946,2.77 -2.836,2.77 l -3.694,0 0,-18.732 z m -6.332,24.471 11.543,0 c 5.1,0 7.651,-2.704 7.651,-8.113 l 0,-14.049 c 0,-5.366 -2.529,-8.047 -7.585,-8.047 l -5.277,0 0,-17.15 -6.332,0 0,47.359"
           id="path3110"
           style="fill:#ffffff;fill-opacity:1;fill-rule:nonzero;stroke:none" /><path
           d="m 388.125,50.061 0,15.764 c 0,1.847 -0.923,2.77 -2.77,2.77 l -1.715,0 c -1.848,0 -2.77,-0.923 -2.77,-2.77 l 0,-15.764 7.255,0 z m -7.255,-23.086 -6.332,0 0,39.246 c 0,5.409 2.527,8.113 7.585,8.113 l 4.749,0 c 5.056,0 7.586,-2.704 7.586,-8.113 l 0,-39.246 -6.333,0 0,17.347 -7.255,0 0,-17.347"
           id="path3112"
           style="fill:#ffffff;fill-opacity:1;fill-rule:nonzero;stroke:none" /><path
           d="m 406.394,51.512 4.156,0 c 1.89,0 2.836,1.143 2.836,3.43 l 0,10.224 c 0,2.286 -0.946,3.429 -2.836,3.429 l -4.156,0 0,-17.083 z m -6.332,22.822 12.4,0 c 4.837,0 7.256,-2.704 7.256,-8.113 l 0,-11.674 c 0,-4.135 -1.253,-6.751 -3.76,-7.85 l 4.42,-19.722 -6.003,0 -4.155,19.128 -3.826,0 0,-19.128 -6.332,0 0,47.359"
           id="path3114"
           style="fill:#ffffff;fill-opacity:1;fill-rule:nonzero;stroke:none" /><path
           d="m 445.904,26.975 -6.332,0 -7.915,23.152 0,0.395 6.595,23.812 5.805,0 -6.662,-23.547 8.509,-23.812 z m -20.909,47.359 6.332,0 0,-47.359 -6.332,0 0,47.359 z"
           id="path3116"
           style="fill:#ffffff;fill-opacity:1;fill-rule:nonzero;stroke:none" /><path
           d="m 164.242,2.146 0,12.95 4.293,0 0,-1.569 -2.561,0 0,-3.932 2.273,0 0,-1.569 -2.273,0 0,-4.31 2.561,0 0,-1.57 -4.293,0"
           id="path3118"
           style="fill:#dab02e;fill-opacity:1;fill-rule:nonzero;stroke:none" /><path
           d="m 173.098,11.616 0,1.136 c 0,0.516 -0.252,0.775 -0.757,0.775 l -0.271,0 c -0.493,0 -0.739,-0.259 -0.739,-0.775 l 0,-2.147 c 0,-0.24 0.047,-0.402 0.144,-0.486 0.096,-0.085 0.253,-0.193 0.469,-0.325 l 1.641,-0.884 c 0.361,-0.204 0.616,-0.363 0.767,-0.478 0.15,-0.114 0.267,-0.253 0.352,-0.415 0.084,-0.162 0.126,-0.472 0.126,-0.928 l 0,-2.76 c 0,-1.455 -0.698,-2.183 -2.093,-2.183 l -1.064,0 c -1.382,0 -2.074,0.794 -2.074,2.381 l 0,0.65 1.732,0 0,-0.704 c 0,-0.505 0.258,-0.757 0.775,-0.757 l 0.307,0 c 0.457,0 0.685,0.252 0.685,0.757 l 0,2.201 c 0,0.24 -0.048,0.402 -0.144,0.487 -0.097,0.084 -0.253,0.191 -0.469,0.324 l -1.641,0.92 c -0.361,0.192 -0.623,0.355 -0.785,0.487 -0.163,0.132 -0.28,0.303 -0.351,0.514 -0.073,0.21 -0.109,0.484 -0.109,0.82 l 0,2.652 c 0,1.479 0.692,2.218 2.074,2.218 l 1.082,0 c 1.383,0 2.075,-0.739 2.075,-2.218 l 0,-1.262 -1.732,0"
           id="path3120"
           style="fill:#dab02e;fill-opacity:1;fill-rule:nonzero;stroke:none" /><path
           d="m 179.032,13.527 0,-11.381 -1.731,0 0,11.381 -1.66,0 0,1.569 5.05,0 0,-1.569 -1.659,0"
           id="path3122"
           style="fill:#dab02e;fill-opacity:1;fill-rule:nonzero;stroke:none" /><path
           d="m 185.309,8.459 0,4.311 c 0,0.505 -0.253,0.757 -0.758,0.757 l -0.469,0 c -0.505,0 -0.757,-0.252 -0.757,-0.757 l 0,-4.311 1.984,0 z m -1.984,-6.313 -1.732,0 0,10.732 c 0,1.479 0.691,2.218 2.074,2.218 l 1.299,0 c 1.383,0 2.074,-0.739 2.074,-2.218 l 0,-10.732 -1.731,0 0,4.744 -1.984,0 0,-4.744"
           id="path3124"
           style="fill:#dab02e;fill-opacity:1;fill-rule:nonzero;stroke:none" /><path
           d="m 190.304,3.716 1.299,0 c 0.457,0 0.686,0.186 0.686,0.558 l 0,2.868 c 0,0.614 -0.343,0.92 -1.029,0.92 l -0.956,0 0,-4.346 z m 0,5.916 0.812,0 c 0.661,0 0.992,0.312 0.992,0.937 l 0,2.021 c 0,0.625 -0.258,0.937 -0.775,0.937 l -1.029,0 0,-3.895 z m 2.291,-0.83 c 0.95,-0.265 1.425,-0.757 1.425,-1.479 l 0,-3.247 c 0,-1.286 -0.656,-1.93 -1.966,-1.93 l -3.481,0 0,12.95 2.958,0 c 1.539,0 2.309,-0.781 2.309,-2.344 l 0,-2.49 c 0,-0.745 -0.415,-1.202 -1.245,-1.37 l 0,-0.09"
           id="path3126"
           style="fill:#dab02e;fill-opacity:1;fill-rule:nonzero;stroke:none" /><path
           d="m 199.575,2.146 -4.112,0 0,12.95 1.731,0 0,-11.38 2.381,0 0,-1.57"
           id="path3128"
           style="fill:#dab02e;fill-opacity:1;fill-rule:nonzero;stroke:none" /><path
           d="m 200.567,15.096 1.731,0 0,-12.95 -1.731,0 0,12.95 z"
           id="path3130"
           style="fill:#dab02e;fill-opacity:1;fill-rule:nonzero;stroke:none" /><path
           d="m 207.241,11.616 0,1.136 c 0,0.516 -0.253,0.775 -0.758,0.775 l -0.27,0 c -0.493,0 -0.74,-0.259 -0.74,-0.775 l 0,-2.147 c 0,-0.24 0.048,-0.402 0.145,-0.486 0.095,-0.085 0.252,-0.193 0.468,-0.325 l 1.642,-0.884 c 0.36,-0.204 0.616,-0.363 0.766,-0.478 0.151,-0.114 0.268,-0.253 0.352,-0.415 0.084,-0.162 0.126,-0.472 0.126,-0.928 l 0,-2.76 c 0,-1.455 -0.697,-2.183 -2.092,-2.183 l -1.064,0 c -1.383,0 -2.074,0.794 -2.074,2.381 l 0,0.65 1.731,0 0,-0.704 c 0,-0.505 0.258,-0.757 0.776,-0.757 l 0.306,0 c 0.457,0 0.686,0.252 0.686,0.757 l 0,2.201 c 0,0.24 -0.049,0.402 -0.144,0.487 -0.097,0.084 -0.253,0.191 -0.47,0.324 l -1.641,0.92 c -0.361,0.192 -0.622,0.355 -0.784,0.487 -0.163,0.132 -0.28,0.303 -0.352,0.514 -0.072,0.21 -0.108,0.484 -0.108,0.82 l 0,2.652 c 0,1.479 0.691,2.218 2.074,2.218 l 1.082,0 c 1.383,0 2.074,-0.739 2.074,-2.218 l 0,-1.262 -1.731,0"
           id="path3132"
           style="fill:#dab02e;fill-opacity:1;fill-rule:nonzero;stroke:none" /><path
           d="m 214.274,2.146 0,5.88 -2.128,0 0,-5.88 -1.731,0 0,12.95 1.731,0 0,-5.501 2.128,0 0,5.501 1.732,0 0,-12.95 -1.732,0"
           id="path3134"
           style="fill:#dab02e;fill-opacity:1;fill-rule:nonzero;stroke:none" /><path
           d="m 217.629,2.146 0,12.95 4.293,0 0,-1.569 -2.561,0 0,-3.932 2.273,0 0,-1.569 -2.273,0 0,-4.31 2.561,0 0,-1.57 -4.293,0"
           id="path3136"
           style="fill:#dab02e;fill-opacity:1;fill-rule:nonzero;stroke:none" /><path
           d="m 224.898,3.716 1.299,0 c 0.457,0 0.685,0.192 0.685,0.577 l 0,8.297 c 0,0.625 -0.258,0.937 -0.776,0.937 l -1.208,0 0,-9.811 z m -1.731,-1.57 0,12.95 3.012,0 c 1.623,0 2.435,-0.829 2.435,-2.489 l 0,-8.585 c 0,-1.251 -0.692,-1.876 -2.074,-1.876 l -3.373,0"
           id="path3138"
           style="fill:#dab02e;fill-opacity:1;fill-rule:nonzero;stroke:none" /><path
           d="m 237.848,3.697 0,-1.551 -4.653,0 0,3.987 c 0,0.215 0.018,0.396 0.054,0.541 0.036,0.144 0.099,0.279 0.189,0.405 0.09,0.127 0.25,0.304 0.478,0.532 l 1.75,1.678 c 0.132,0.132 0.237,0.246 0.315,0.343 0.079,0.095 0.133,0.176 0.163,0.243 l 0.054,0.208 c 0.006,0.072 0.009,0.168 0.009,0.288 l 0,2.399 c 0,0.505 -0.247,0.757 -0.74,0.757 l -0.108,0 c -0.493,0 -0.739,-0.252 -0.739,-0.757 l 0,-1.335 -1.732,0 0,1.443 c 0,1.479 0.692,2.218 2.074,2.218 l 0.902,0 c 1.383,0 2.074,-0.739 2.074,-2.218 l 0,-3.102 c 0,-0.241 -0.033,-0.451 -0.099,-0.632 -0.066,-0.179 -0.237,-0.402 -0.514,-0.667 l -1.912,-1.84 c -0.241,-0.228 -0.378,-0.384 -0.414,-0.468 l -0.064,-0.253 c -0.006,-0.084 -0.009,-0.198 -0.009,-0.343 l 0,-1.876 2.922,0"
           id="path3140"
           style="fill:#dab02e;fill-opacity:1;fill-rule:nonzero;stroke:none" /><path
           d="m 242.104,13.527 c -0.457,0 -0.685,-0.252 -0.685,-0.757 l 0,-8.297 c 0,-0.505 0.259,-0.757 0.776,-0.757 l 0.432,0 c 0.457,0 0.686,0.252 0.686,0.757 l 0,8.297 c 0,0.505 -0.259,0.757 -0.775,0.757 l -0.434,0 z M 241.762,2.146 c -1.383,0 -2.074,0.739 -2.074,2.219 l 0,8.513 c 0,1.479 0.691,2.218 2.074,2.218 l 1.208,0 c 1.383,0 2.074,-0.739 2.074,-2.218 l 0,-8.513 c 0,-1.48 -0.691,-2.219 -2.074,-2.219 l -1.208,0"
           id="path3142"
           style="fill:#dab02e;fill-opacity:1;fill-rule:nonzero;stroke:none" /><path
           d="m 246.523,12.229 -0.397,1.191 c 0.445,0.168 0.824,0.402 1.137,0.703 0.312,0.301 0.559,0.625 0.739,0.973 l 0.181,0 1.136,-0.613 0,-12.337 -1.714,0 0,10.407 -1.082,-0.324"
           id="path3144"
           style="fill:#dab02e;fill-opacity:1;fill-rule:nonzero;stroke:none" /><path
           d="m 254.874,8.802 c 0.902,-0.241 1.353,-0.788 1.353,-1.641 l 0,-2.815 c 0,-1.466 -0.692,-2.2 -2.074,-2.2 l -1.173,0 c -1.382,0 -2.074,0.734 -2.074,2.2 l 0,0.831 1.732,0 0,-0.704 c 0,-0.505 0.228,-0.757 0.685,-0.757 l 0.397,0 c 0.517,0 0.776,0.252 0.776,0.757 l 0,2.669 c 0,0.566 -0.337,0.848 -1.011,0.848 l -0.468,0 0,1.461 0.252,0 c 0.673,0 1.01,0.282 1.01,0.848 l 0,2.453 c 0,0.505 -0.258,0.758 -0.776,0.758 l -0.234,0 c -0.457,0 -0.686,-0.253 -0.686,-0.758 l 0,-1.317 -1.731,0 0,1.443 c 0,1.479 0.691,2.218 2.074,2.218 l 1.011,0 c 1.382,0 2.074,-0.739 2.074,-2.218 l 0,-2.579 c 0,-0.818 -0.379,-1.317 -1.137,-1.497"
           id="path3146"
           style="fill:#dab02e;fill-opacity:1;fill-rule:nonzero;stroke:none" /><path
           d="m 262.377,8.856 1.137,0 c 0.516,0 0.775,0.313 0.775,0.938 l 0,2.796 c 0,0.625 -0.259,0.937 -0.775,0.937 l -1.137,0 0,-4.671 z m -1.731,6.24 3.391,0 c 1.322,0 1.984,-0.739 1.984,-2.218 l 0,-3.193 c 0,-1.13 -0.343,-1.845 -1.028,-2.146 l 1.208,-5.393 -1.641,0 -1.137,5.231 -1.046,0 0,-5.231 -1.731,0 0,12.95"
           id="path3148"
           style="fill:#dab02e;fill-opacity:1;fill-rule:nonzero;stroke:none" /><path
           d="m 267.463,2.146 0,12.95 4.294,0 0,-1.569 -2.563,0 0,-3.932 2.274,0 0,-1.569 -2.274,0 0,-4.31 2.563,0 0,-1.57 -4.294,0"
           id="path3150"
           style="fill:#dab02e;fill-opacity:1;fill-rule:nonzero;stroke:none" /><path
           d="m 276.229,2.146 -1.731,0 0,4.762 -2.128,8.188 1.713,0 1.298,-5.627 0.055,0 1.172,5.627 1.714,0 -2.093,-8.188 0,-4.762"
           id="path3152"
           style="fill:#dab02e;fill-opacity:1;fill-rule:nonzero;stroke:none" /><path
           d="m 282.904,8.838 0,6.258 1.731,0 0,-12.95 -1.731,0 0,2.579 -1.859,5.899 0,-8.478 -1.731,0 0,12.95 1.731,0 1.859,-6.258"
           id="path3154"
           style="fill:#dab02e;fill-opacity:1;fill-rule:nonzero;stroke:none" /><path
           d="m 288.674,3.716 0.884,0 c 0.457,0 0.686,0.252 0.686,0.757 l 0,8.297 c 0,0.505 -0.259,0.757 -0.776,0.757 l -0.811,0 c -0.506,0 -0.758,-0.252 -0.758,-0.757 l 0,-8.297 c 0,-0.505 0.259,-0.757 0.775,-0.757 z m -0.415,-1.57 c -1.394,0 -2.092,0.734 -2.092,2.2 l 0,8.532 c 0,1.479 0.692,2.218 2.075,2.218 l 1.659,0 c 1.383,0 2.074,-0.739 2.074,-2.218 l 0,-8.532 c 0,-1.466 -0.697,-2.2 -2.092,-2.2 l -1.624,0"
           id="path3156"
           style="fill:#dab02e;fill-opacity:1;fill-rule:nonzero;stroke:none" /><path
           d="m 297.621,2.146 -4.113,0 0,12.95 1.732,0 0,-11.38 2.381,0 0,-1.57"
           id="path3158"
           style="fill:#dab02e;fill-opacity:1;fill-rule:nonzero;stroke:none" /><path
           d="m 300.344,3.716 1.299,0 c 0.457,0 0.686,0.192 0.686,0.577 l 0,8.297 c 0,0.625 -0.259,0.937 -0.776,0.937 l -1.209,0 0,-9.811 z m -1.731,-1.57 0,12.95 3.012,0 c 1.624,0 2.435,-0.829 2.435,-2.489 l 0,-8.585 c 0,-1.251 -0.691,-1.876 -2.074,-1.876 l -3.373,0"
           id="path3160"
           style="fill:#dab02e;fill-opacity:1;fill-rule:nonzero;stroke:none" /><path
           d="m 308.912,11.616 0,1.136 c 0,0.516 -0.253,0.775 -0.758,0.775 l -0.271,0 c -0.493,0 -0.739,-0.259 -0.739,-0.775 l 0,-2.147 c 0,-0.24 0.048,-0.402 0.144,-0.486 0.096,-0.085 0.253,-0.193 0.468,-0.325 l 1.642,-0.884 c 0.361,-0.204 0.616,-0.363 0.767,-0.478 0.15,-0.114 0.267,-0.253 0.351,-0.415 0.084,-0.162 0.127,-0.472 0.127,-0.928 l 0,-2.76 c 0,-1.455 -0.698,-2.183 -2.093,-2.183 l -1.064,0 c -1.383,0 -2.074,0.794 -2.074,2.381 l 0,0.65 1.732,0 0,-0.704 c 0,-0.505 0.258,-0.757 0.775,-0.757 l 0.307,0 c 0.457,0 0.686,0.252 0.686,0.757 l 0,2.201 c 0,0.24 -0.049,0.402 -0.145,0.487 -0.097,0.084 -0.253,0.191 -0.469,0.324 l -1.641,0.92 c -0.362,0.192 -0.622,0.355 -0.785,0.487 -0.163,0.132 -0.28,0.303 -0.352,0.514 -0.072,0.21 -0.108,0.484 -0.108,0.82 l 0,2.652 c 0,1.479 0.691,2.218 2.074,2.218 l 1.083,0 c 1.382,0 2.074,-0.739 2.074,-2.218 l 0,-1.262 -1.731,0"
           id="path3162"
           style="fill:#dab02e;fill-opacity:1;fill-rule:nonzero;stroke:none" /><path
           d="m 314.845,13.527 0,-11.381 -1.731,0 0,11.381 -1.659,0 0,1.569 5.049,0 0,-1.569 -1.659,0"
           id="path3164"
           style="fill:#dab02e;fill-opacity:1;fill-rule:nonzero;stroke:none" /><path
           d="m 319.914,3.716 0.883,0 c 0.457,0 0.686,0.252 0.686,0.757 l 0,8.297 c 0,0.505 -0.259,0.757 -0.775,0.757 l -0.812,0 c -0.506,0 -0.758,-0.252 -0.758,-0.757 l 0,-8.297 c 0,-0.505 0.259,-0.757 0.776,-0.757 z m -0.415,-1.57 c -1.395,0 -2.092,0.734 -2.092,2.2 l 0,8.532 c 0,1.479 0.691,2.218 2.074,2.218 l 1.659,0 c 1.383,0 2.074,-0.739 2.074,-2.218 l 0,-8.532 c 0,-1.466 -0.697,-2.2 -2.091,-2.2 l -1.624,0"
           id="path3166"
           style="fill:#dab02e;fill-opacity:1;fill-rule:nonzero;stroke:none" /><path
           d="m 333.802,15.096 -1.912,-12.95 -1.876,0 -1.063,7.503 -1.047,-7.503 -1.876,0 -1.911,12.95 1.713,0 1.226,-9.703 1.227,9.703 1.352,0 1.227,-9.703 1.226,9.703 1.714,0"
           id="path3168"
           style="fill:#dab02e;fill-opacity:1;fill-rule:nonzero;stroke:none" /><path
           d="m 338.383,8.838 0,6.258 1.732,0 0,-12.95 -1.732,0 0,2.579 -1.858,5.899 0,-8.478 -1.732,0 0,12.95 1.732,0 1.858,-6.258"
           id="path3170"
           style="fill:#dab02e;fill-opacity:1;fill-rule:nonzero;stroke:none" /><path
           d="m 341.486,0 0.829,2.146 -0.848,0 0,2.237 1.93,0 0,-2.237 L 342.532,0 341.486,0"
           id="path3172"
           style="fill:#dab02e;fill-opacity:1;fill-rule:nonzero;stroke:none" /><path
           d="m 350.305,6.89 0,1.569 2.633,0 0,-6.313 -3.391,0 c -1.335,0 -2.002,0.728 -2.002,2.183 l 0,8.549 c 0,1.479 0.667,2.218 2.002,2.218 l 1.191,0 c 1.467,0 2.2,-0.751 2.2,-2.253 l 0,-1.408 -1.731,0 0,1.155 c 0,0.625 -0.247,0.937 -0.74,0.937 l -0.432,0 c -0.506,0 -0.758,-0.312 -0.758,-0.937 l 0,-7.937 c 0,-0.625 0.252,-0.937 0.758,-0.937 l 1.172,0 0,3.174 -0.902,0"
           id="path3174"
           style="fill:#dab02e;fill-opacity:1;fill-rule:nonzero;stroke:none" /><path
           d="m 357.971,8.459 0,4.311 c 0,0.505 -0.253,0.757 -0.758,0.757 l -0.468,0 c -0.506,0 -0.758,-0.252 -0.758,-0.757 l 0,-4.311 1.984,0 z m -1.984,-6.313 -1.732,0 0,10.732 c 0,1.479 0.692,2.218 2.075,2.218 l 1.298,0 c 1.382,0 2.075,-0.739 2.075,-2.218 l 0,-10.732 -1.732,0 0,4.744 -1.984,0 0,-4.744"
           id="path3176"
           style="fill:#dab02e;fill-opacity:1;fill-rule:nonzero;stroke:none" /><path
           d="m 227.625,106.208 0,-2.524 -3.655,0 0,-9.458 -2.785,0 0,20.83 6.905,0 0,-2.524 -4.12,0 0,-6.324 3.655,0"
           id="path3178"
           style="fill:#ffffff;fill-opacity:1;fill-rule:nonzero;stroke:none" /><path
           d="m 232.761,105.018 1.827,0 c 0.832,0 1.248,0.503 1.248,1.509 l 0,4.497 c 0,1.006 -0.416,1.508 -1.248,1.508 l -1.827,0 0,-7.514 z m -2.785,10.038 5.454,0 c 2.127,0 3.191,-1.189 3.191,-3.568 l 0,-5.135 c 0,-1.819 -0.551,-2.969 -1.654,-3.452 l 1.944,-8.675 -2.64,0 -1.828,8.413 -1.682,0 0,-8.413 -2.785,0 0,20.83"
           id="path3180"
           style="fill:#ffffff;fill-opacity:1;fill-rule:nonzero;stroke:none" /><path
           d="m 240.942,115.056 2.785,0 0,-20.83 -2.785,0 0,20.83 z"
           id="path3182"
           style="fill:#ffffff;fill-opacity:1;fill-rule:nonzero;stroke:none" /><path
           d="m 246.338,94.226 0,20.83 6.905,0 0,-2.524 -4.12,0 0,-6.324 3.655,0 0,-2.524 -3.655,0 0,-6.934 4.12,0 0,-2.524 -6.905,0"
           id="path3184"
           style="fill:#ffffff;fill-opacity:1;fill-rule:nonzero;stroke:none" /><path
           d="m 261.018,104.989 0,10.067 2.785,0 0,-20.83 -2.785,0 0,4.149 -2.989,9.487 0,-13.636 -2.785,0 0,20.83 2.785,0 2.989,-10.067"
           id="path3186"
           style="fill:#ffffff;fill-opacity:1;fill-rule:nonzero;stroke:none" /><path
           d="m 269.198,96.75 2.091,0 c 0.734,0 1.101,0.309 1.101,0.928 l 0,13.346 c 0,1.006 -0.416,1.508 -1.248,1.508 l -1.944,0 0,-15.782 z m -2.784,-2.524 0,20.83 4.845,0 c 2.612,0 3.916,-1.334 3.916,-4.003 l 0,-13.81 c 0,-2.012 -1.111,-3.017 -3.336,-3.017 l -5.425,0"
           id="path3188"
           style="fill:#ffffff;fill-opacity:1;fill-rule:nonzero;stroke:none" /><path
           d="m 282.98,109.457 0,1.828 c 0,0.831 -0.406,1.247 -1.219,1.247 l -0.434,0 c -0.793,0 -1.19,-0.416 -1.19,-1.247 l 0,-3.453 c 0,-0.386 0.077,-0.648 0.232,-0.783 0.155,-0.135 0.406,-0.31 0.755,-0.522 l 2.639,-1.422 c 0.581,-0.329 0.991,-0.585 1.234,-0.768 0.241,-0.184 0.429,-0.407 0.565,-0.668 0.136,-0.261 0.203,-0.759 0.203,-1.494 l 0,-4.439 c 0,-2.34 -1.122,-3.51 -3.365,-3.51 l -1.712,0 c -2.225,0 -3.336,1.276 -3.336,3.829 l 0,1.045 2.785,0 0,-1.132 c 0,-0.812 0.415,-1.218 1.247,-1.218 l 0.493,0 c 0.736,0 1.103,0.406 1.103,1.218 l 0,3.54 c 0,0.387 -0.077,0.648 -0.231,0.783 -0.156,0.136 -0.407,0.309 -0.755,0.522 l -2.64,1.48 c -0.58,0.309 -1.001,0.571 -1.263,0.783 -0.26,0.213 -0.449,0.489 -0.565,0.827 -0.116,0.338 -0.174,0.778 -0.174,1.32 l 0,4.265 c 0,2.379 1.111,3.568 3.336,3.568 l 1.741,0 c 2.224,0 3.336,-1.189 3.336,-3.568 l 0,-2.031 -2.785,0"
           id="path3190"
           style="fill:#ffffff;fill-opacity:1;fill-rule:nonzero;stroke:none" /><path
           d="m 296.615,96.75 1.422,0 c 0.734,0 1.101,0.406 1.101,1.218 l 0,13.346 c 0,0.812 -0.416,1.218 -1.247,1.218 l -1.306,0 c -0.812,0 -1.218,-0.406 -1.218,-1.218 l 0,-13.346 c 0,-0.812 0.416,-1.218 1.248,-1.218 z m -0.667,-2.524 c -2.244,0 -3.366,1.18 -3.366,3.539 l 0,13.723 c 0,2.379 1.112,3.568 3.336,3.568 l 2.669,0 c 2.224,0 3.336,-1.189 3.336,-3.568 l 0,-13.723 c 0,-2.359 -1.121,-3.539 -3.365,-3.539 l -2.61,0"
           id="path3192"
           style="fill:#ffffff;fill-opacity:1;fill-rule:nonzero;stroke:none" /><path
           d="m 310.831,106.208 0,-2.524 -3.656,0 0,-9.458 -2.785,0 0,20.83 6.904,0 0,-2.524 -4.119,0 0,-6.324 3.656,0"
           id="path3194"
           style="fill:#ffffff;fill-opacity:1;fill-rule:nonzero;stroke:none" /></g></g></g></svg>